<?xml version="1.0" encoding="utf-8"?>
<!-- Generator: Adobe Illustrator 16.0.0, SVG Export Plug-In . SVG Version: 6.00 Build 0)  -->
<!DOCTYPE svg PUBLIC "-//W3C//DTD SVG 1.1//EN" "http://www.w3.org/Graphics/SVG/1.1/DTD/svg11.dtd">
<svg version="1.1" xmlns="http://www.w3.org/2000/svg" xmlns:xlink="http://www.w3.org/1999/xlink" x="0px" y="0px" width="102px"
	 height="102px" viewBox="0 0 102 102" enable-background="new 0 0 102 102" xml:space="preserve">
<g id="Layer_2" display="none">
	<rect display="inline" fill="#9E9E9E" width="102" height="102"/>
</g>
<g id="Layer_1">
	<g display="none">
		<circle display="inline" fill="none" stroke="#FFFFFF" stroke-width="2" stroke-miterlimit="10" cx="51" cy="51" r="50"/>
		
			<line display="inline" fill="none" stroke="#FFFFFF" stroke-width="2" stroke-linejoin="round" stroke-miterlimit="10" x1="5.937" y1="72.693" x2="96.059" y2="72.693"/>
		<path display="inline" fill="#FFFFFF" stroke="#FFFFFF" stroke-width="1.5" stroke-linejoin="round" stroke-miterlimit="10" d="
			M70.444,58.218L60.187,46.31l6.946,0.003c0.492-0.443,0.492-1.163,0.002-1.606l-9.858-11.444l6.758,0.003
			c0.395-0.359,0.395-0.94,0-1.298l-12.31-14.289c-0.396-0.359-1.039-0.359-1.438,0l-12.32,14.279
			c-0.397,0.358-0.397,0.939-0.002,1.298l6.769,0.002l-9.865,11.436c-0.493,0.444-0.493,1.164-0.002,1.608l6.957,0.002l-10.267,11.9
			c-0.595,0.533-0.595,1.399-0.002,1.936l15.25,0.005v12.549h8.395V60.145l15.247,0.009C71.037,59.618,71.037,58.752,70.444,58.218z
			"/>
	</g>
	<g display="none">
		<circle display="inline" fill="none" stroke="#FFFFFF" stroke-width="2" stroke-miterlimit="10" cx="51" cy="51" r="50"/>
		
			<line display="inline" fill="none" stroke="#FFFFFF" stroke-width="2" stroke-linejoin="round" stroke-miterlimit="10" x1="5.937" y1="72.694" x2="96.059" y2="72.694"/>
		<path display="inline" fill="none" stroke="#FFFFFF" stroke-width="1.5" stroke-linejoin="round" stroke-miterlimit="10" d="
			M70.444,58.218L60.187,46.31l6.946,0.003c0.492-0.443,0.492-1.163,0.002-1.606l-9.858-11.444l6.758,0.003
			c0.395-0.359,0.395-0.94,0-1.298l-12.31-14.289c-0.396-0.359-1.039-0.359-1.438,0l-12.32,14.278
			c-0.397,0.358-0.397,0.939-0.002,1.298l6.769,0.003l-9.865,11.436c-0.493,0.444-0.493,1.164-0.002,1.608l6.957,0.002l-10.267,11.9
			c-0.595,0.534-0.595,1.4-0.002,1.936l15.25,0.005v12.55h8.395V60.147l15.247,0.007C71.037,59.62,71.037,58.753,70.444,58.218z"/>
	</g>
	<g display="none">
		<circle display="inline" fill="none" stroke="#FFFFFF" stroke-width="2" stroke-miterlimit="10" cx="51" cy="51" r="50"/>
		
			<line display="inline" fill="none" stroke="#FFFFFF" stroke-width="2" stroke-linejoin="round" stroke-miterlimit="10" x1="5.937" y1="72.693" x2="96.059" y2="72.693"/>
		<polygon display="inline" fill-rule="evenodd" clip-rule="evenodd" fill="#FFFFFF" points="65.916,48.123 52.897,50.873 
			52.396,43.969 61.768,37.358 52.186,41.068 51.587,32.814 54.087,28.995 51.494,31.526 50.655,19.985 49.936,35.05 45.295,31.511 
			49.863,36.553 49.479,44.583 40.565,40.68 49.338,47.488 49.06,53.305 36.08,50.186 48.897,56.74 48.137,72.635 50.655,73.804 
			54.464,72.428 53.147,54.297 		"/>
	</g>
	<g>
		<g>
			
				<circle fill="none" stroke="#FFFFFF" stroke-width="3" stroke-miterlimit="10" stroke-dasharray="8.0999,8.0999" cx="51" cy="51" r="49"/>
		</g>
		<g>
			<rect x="26.5" y="48.822" fill="#FFFFFF" width="49" height="4.356"/>
			<rect x="48.822" y="26.5" fill="#FFFFFF" width="4.355" height="49"/>
		</g>
	</g>
</g>
</svg>
