<?xml version="1.0" encoding="utf-8"?>
<!-- Generator: Adobe Illustrator 16.0.0, SVG Export Plug-In . SVG Version: 6.00 Build 0)  -->
<!DOCTYPE svg PUBLIC "-//W3C//DTD SVG 1.1//EN" "http://www.w3.org/Graphics/SVG/1.1/DTD/svg11.dtd">
<svg version="1.1" id="Layer_1" xmlns="http://www.w3.org/2000/svg" xmlns:xlink="http://www.w3.org/1999/xlink" x="0px" y="0px"
	 width="312px" height="312px" viewBox="0 0 312 312" enable-background="new 0 0 312 312" xml:space="preserve">
<g>
	<circle fill-rule="evenodd" clip-rule="evenodd" fill="#E4E4A3" cx="156" cy="156.003" r="156"/>
	<g>
		<path fill-rule="evenodd" clip-rule="evenodd" fill="#714406" d="M283.835,198.414c-18.055,53.27-68.469,91.609-127.839,91.609
			c-59.371,0-109.787-38.34-127.84-91.612L283.835,198.414z"/>
		<ellipse fill-rule="evenodd" clip-rule="evenodd" fill="#845217" cx="156" cy="197.392" rx="128" ry="20"/>
	</g>
	<g>
		<path fill-rule="evenodd" clip-rule="evenodd" fill="#714406" d="M283.815,198.414c-18.051,53.271-68.461,91.609-127.83,91.609
			c-59.366,0-109.779-38.339-127.831-91.612l127.83,6.341L283.815,198.414z"/>
		<path fill-rule="evenodd" clip-rule="evenodd" fill="#845217" d="M156,217.392c68.498,0,124.429-8.406,127.835-18.978
			l-255.671-0.003C31.561,208.984,87.496,217.392,156,217.392z"/>
	</g>
</g>
</svg>
