<?xml version="1.0" encoding="utf-8"?>
<!-- Generator: Adobe Illustrator 16.0.0, SVG Export Plug-In . SVG Version: 6.00 Build 0)  -->
<!DOCTYPE svg PUBLIC "-//W3C//DTD SVG 1.1//EN" "http://www.w3.org/Graphics/SVG/1.1/DTD/svg11.dtd">
<svg version="1.1" id="Layer_1" xmlns="http://www.w3.org/2000/svg" xmlns:xlink="http://www.w3.org/1999/xlink" x="0px" y="0px"
	 width="80px" height="102.051px" viewBox="0 0 80 102.051" enable-background="new 0 0 80 102.051" xml:space="preserve">
<g>
	<path fill="#3B2314" d="M56.829,0c0,0,0.735,11.09-11.92,16.392C32.251,21.693,8.157,27.927,1.737,52.03
		C-4.681,76.133,8.115,89.93,16.805,95.65c13.55,8.923,42.182,11.748,55.64-13.336C85.905,57.229,81.783,28.72,56.829,0z"/>
	<path fill="#603813" d="M56.829,0c0,0,1.137,24.441-11.264,33.051C33.163,41.659,4.684,69.278,22.011,91.216
		c5.138,6.506,31.417,13.163,46.937-19.585C87.348,32.802,56.829,0,56.829,0z"/>
	<path fill="#603813" d="M53.904,9.382c-1.753,2.563-4.543,5.145-8.995,7.01c-0.774,0.324-1.592,0.653-2.446,0.987
		c-3.921,1.906-8.104,3.48-11.824,4.747C18.962,27.308,6.158,35.432,1.737,52.03c-1.275,4.789-1.782,9.166-1.723,13.158
		C1.16,80.487,12.978,90.024,13.519,87.086c0.388-2.108-5.053-12.734,2.25-27.729c4.56-9.366,14.343-18.623,32.241-28.375
		S56.829,0,56.829,0C57.505,3.514,56.274,6.633,53.904,9.382z"/>
	<path fill="#8A5D3B" d="M45.967,17.368c-12.883,5.224-31.635,9.211-41.358,31.49C-0.888,61.45,3.063,72.847,3.063,72.847
		s0.501-18.396,8.402-30.169C21.888,27.14,39.861,19.959,45.967,17.368z"/>
	<path fill="#8A5D3B" d="M47.507,32.783c0,0-37.824,25.581-27.472,51.264C20.035,84.047,22.059,53.497,47.507,32.783z"/>
	<path display="none" fill="#8A5D3B" d="M50.739,35.227c0,0-17.957,38.045-20.375,52.158C30.363,87.385,28.767,62.205,50.739,35.227
		z"/>
	<path fill="#8A5D3B" d="M59.732,28.258c0,0,0.979,25.412-16.307,58.551C43.425,86.81,61.324,71.273,59.732,28.258z"/>
	<path fill="#3B2314" d="M63.026,11.287c0,0,16.353,29.48,1.588,59.137c-8.502,17.077-17.979,26.059-23.529,28.36l-4.941-1.376
		c0,0,12.301-9.201,23.859-31.688C76.03,34.538,63.026,11.287,63.026,11.287z"/>
	<path display="none" fill="#3B2314" d="M51.833,31.302c0,0-17.572,22.063-20.973,40.313c-3.398,18.251,1.033,26.104,1.033,26.104
		l-5.731-1.597c0,0-6.647-15.752,2.605-33.918C38.018,44.04,51.833,31.302,51.833,31.302z"/>
	<path display="none" fill="#3B2314" d="M59.071,22.322c0,0-6.503,32.855-28.28,76.193l4.682,1.304c0,0,4.866-9.238,14.191-30.69
		C56.763,52.79,59.071,22.322,59.071,22.322z"/>
	<path display="none" fill="#3B2314" d="M54.228,14.353c0,0-0.511,5.816-4.533,9.55C45.673,27.638,13.7,41.828,9.728,59.258
		s4.96,31.022,4.96,31.022l-6.895-6.355c0,0-14.515-28.428,19.313-49.542c9.955-6.215,18.52-9.001,22.064-12.169
		C54.217,17.703,54.228,14.353,54.228,14.353z"/>
</g>
</svg>
