<?xml version="1.0" encoding="utf-8"?>
<!-- Generator: Adobe Illustrator 16.0.0, SVG Export Plug-In . SVG Version: 6.00 Build 0)  -->
<!DOCTYPE svg PUBLIC "-//W3C//DTD SVG 1.1//EN" "http://www.w3.org/Graphics/SVG/1.1/DTD/svg11.dtd">
<svg version="1.1" id="Layer_1" xmlns="http://www.w3.org/2000/svg" xmlns:xlink="http://www.w3.org/1999/xlink" x="0px" y="0px"
	 width="80px" height="80px" viewBox="0 0 80 80" enable-background="new 0 0 80 80" xml:space="preserve">
<rect display="none" fill="#51A387" width="80" height="80"/>
<path fill="none" stroke="#FFFFFF" stroke-width="1.5" stroke-miterlimit="10" d="M63.142,42.848v-5.786l-6.915-2.881
	c-0.193-0.542-0.396-1.066-0.645-1.582l2.793-6.949l-4.092-4.09l-6.888,2.835c-0.525-0.254-1.063-0.467-1.616-0.666l-2.932-6.87
	h-5.785l-2.858,6.847c-0.577,0.204-1.131,0.418-1.679,0.678l-6.876-2.762l-4.091,4.09l2.804,6.813
	c-0.272,0.56-0.492,1.13-0.701,1.719l-6.803,2.909v5.787l6.809,2.834c0.209,0.589,0.435,1.16,0.705,1.718l-2.751,6.86l4.091,4.09
	l6.83-2.814c0.549,0.261,1.109,0.469,1.684,0.667l2.927,6.847h5.786l2.864-6.881c0.547-0.203,1.09-0.418,1.608-0.666l6.938,2.779
	l4.091-4.09l-2.849-6.904c0.244-0.519,0.441-1.046,0.634-1.582L63.142,42.848z M39.955,48.678c-4.79,0-8.678-3.886-8.678-8.678
	c0-4.79,3.888-8.678,8.678-8.678c4.792,0,8.679,3.888,8.679,8.678C48.634,44.792,44.746,48.678,39.955,48.678z"/>
<g display="none">
	<path display="inline" fill="none" stroke="#FFFFFF" stroke-width="1.5" stroke-miterlimit="10" d="M146.02-73.022
		c-0.391-0.391-0.391-1.023,0-1.414l12.111-15.554c0.391-0.39,1.023-0.39,1.414,0l12.101,15.565c0.39,0.39,0.39,1.023-0.001,1.414
		L146.02-73.022z"/>
	<path display="inline" fill="none" stroke="#FFFFFF" stroke-width="1.5" stroke-miterlimit="10" d="M142.972-58.811
		c-0.483-0.483-0.483-1.267,0.001-1.75l14.991-19.254c0.483-0.483,1.267-0.483,1.751,0l14.979,19.268
		c0.482,0.483,0.482,1.267-0.001,1.75L142.972-58.811z"/>
	<path display="inline" fill="none" stroke="#FFFFFF" stroke-width="1.5" stroke-miterlimit="10" d="M139.718-43.737
		c-0.582-0.583-0.582-1.526,0.001-2.109l18.066-23.204c0.584-0.583,1.527-0.583,2.11,0l18.052,23.221
		c0.582,0.582,0.582,1.527-0.001,2.108L139.718-43.737z"/>
	<path display="inline" fill="none" stroke="#FFFFFF" stroke-width="1.5" stroke-miterlimit="10" d="M162.957-30.275
		c0,1.104-0.895,2-2,2h-4.25c-1.104,0-2-0.896-2-2v-15.5c0-1.104,0.896-2,2-2h4.25c1.105,0,2,0.896,2,2V-30.275z"/>
</g>
<g display="none">
	<path display="inline" fill="none" stroke="#FFFFFF" stroke-width="1.5" stroke-linejoin="round" stroke-miterlimit="10" d="
		M31.811,52.309c-0.453-0.409-0.453-1.072,0-1.481l7.857-9.106l-5.324-0.002c-0.376-0.34-0.376-0.891,0-1.23l6.853-7.942
		L40.5,31.735l-3.783-0.001c-0.304-0.274-0.304-0.719,0-0.993l1.464-1.696l-0.072-0.084h0.144l2.944-3.411l-7.335-8.515
		c-0.304-0.275-0.797-0.275-1.101,0l-9.429,10.928c-0.304,0.274-0.304,0.719,0,0.993l5.18,0.002l-7.552,8.752
		c-0.376,0.34-0.376,0.89,0,1.23l5.324,0.002l-7.857,9.107c-0.454,0.408-0.454,1.071,0,1.481l11.67,0.004v9.351
		c0,0.832,0.697,1.508,1.557,1.508h3.309c0.86,0,1.557-0.676,1.557-1.508v-6.574L31.811,52.309z"/>
	<path display="inline" fill="none" stroke="#FFFFFF" stroke-width="1.5" stroke-linejoin="round" stroke-miterlimit="10" d="
		M61.574,50.839l-7.851-9.113l5.315,0.002c0.377-0.339,0.377-0.89,0.002-1.229l-7.546-8.758l5.172,0.002
		c0.304-0.274,0.304-0.719,0.001-0.993l-9.421-10.935c-0.304-0.275-0.796-0.275-1.101,0l-9.429,10.928
		c-0.304,0.274-0.304,0.719,0,0.993l5.179,0.002l-7.551,8.752c-0.377,0.34-0.377,0.891,0,1.23l5.324,0.002l-7.857,9.106
		c-0.454,0.409-0.454,1.072,0,1.481l11.67,0.005v9.351c0,0.832,0.697,1.508,1.557,1.508h3.308c0.861,0,1.559-0.676,1.559-1.508
		v-9.35l11.67,0.006C62.027,51.911,62.027,51.248,61.574,50.839z"/>
</g>
<g display="none" opacity="0.2">
	<circle display="inline" fill="none" stroke="#FFFFFF" stroke-width="1.5" stroke-miterlimit="10" cx="40" cy="40" r="25"/>
	<g display="inline">
		<path fill="none" stroke="#FFFFFF" stroke-width="1.5" stroke-miterlimit="10" d="M53.957,30.244c0,1.609-1.305,2.913-2.914,2.913
			H28.957c-1.609,0-2.913-1.304-2.913-2.913l0,0c0-1.609,1.304-2.914,2.913-2.914h22.086C52.652,27.331,53.957,28.635,53.957,30.244
			L53.957,30.244z"/>
		<path fill="none" stroke="#FFFFFF" stroke-width="1.5" stroke-miterlimit="10" d="M53.957,40c0,1.609-1.305,2.913-2.914,2.913
			H28.957c-1.609,0-2.913-1.304-2.913-2.913l0,0c0-1.609,1.304-2.913,2.913-2.913h22.086C52.652,37.087,53.957,38.391,53.957,40
			L53.957,40z"/>
		<path fill="none" stroke="#FFFFFF" stroke-width="1.5" stroke-miterlimit="10" d="M53.957,49.756c0,1.609-1.305,2.913-2.914,2.913
			H28.957c-1.609,0-2.913-1.304-2.913-2.913l0,0c0-1.608,1.304-2.913,2.913-2.913h22.086C52.652,46.843,53.957,48.147,53.957,49.756
			L53.957,49.756z"/>
	</g>
</g>
<g display="none">
	<path fill="none" stroke="#FFFFFF" stroke-width="1.5" stroke-miterlimit="10" d="M53.212,35.297
		c2.844-1.736,4.749-4.858,4.749-8.433c0-5.46-4.426-9.886-9.888-9.886c-5.459,0-9.885,4.426-9.885,9.886
		c0,3.575,1.903,6.697,4.748,8.433c-6.262,2.139-10.77,8.059-10.77,15.043H63.98C63.98,43.356,59.473,37.437,53.212,35.297z"/>
	<path display="inline" fill="none" stroke="#FFFFFF" stroke-width="1.5" stroke-miterlimit="10" d="M39.941,45.712
		c3.101-1.893,5.177-5.296,5.177-9.193c0-5.952-4.825-10.776-10.778-10.776c-5.952,0-10.776,4.825-10.776,10.776
		c0,3.897,2.076,7.3,5.175,9.193C21.914,48.043,17,54.497,17,62.11h34.68C51.68,54.497,46.766,48.044,39.941,45.712z"/>
	<path display="inline" fill="none" stroke="#FFFFFF" stroke-width="1.5" stroke-miterlimit="10" d="M45.118,36.519
		c0,3.897-2.076,7.3-5.177,9.193c2.744,0.938,5.171,2.551,7.103,4.629H63.98c0-6.984-4.508-12.904-10.769-15.043
		c2.844-1.736,4.749-4.858,4.749-8.433c0-5.46-4.426-9.886-9.888-9.886c-5.326,0-9.656,4.216-9.865,9.491
		C42.247,28.025,45.118,31.933,45.118,36.519z"/>
</g>
<path display="none" fill="none" stroke="#FFFFFF" stroke-width="1.5" stroke-miterlimit="10" d="M54.44,41.059
	c3.012-1.416,5.104-4.468,5.104-8.015c0-4.895-3.969-8.862-8.863-8.862s-8.862,3.967-8.862,8.862c0,3.547,2.091,6.6,5.103,8.015
	c-5.927,1.645-10.282,7.067-10.282,13.519h28.083C64.722,48.126,60.366,42.705,54.44,41.059z"/>
<path display="none" fill="none" stroke="#FFFFFF" stroke-width="1.5" stroke-miterlimit="10" d="M54.088,35.183
	c3.234-1.521,5.481-4.799,5.481-8.609c0-5.257-4.263-9.518-9.52-9.518s-9.519,4.261-9.519,9.518c0,3.81,2.246,7.088,5.48,8.609
	c-6.365,1.766-11.043,7.59-11.043,14.519H65.13C65.13,42.773,60.452,36.951,54.088,35.183z"/>
<path display="none" fill="#51A387" stroke="#FFFFFF" stroke-width="1.5" stroke-miterlimit="10" d="M37.983,44.417
	c3.72-1.748,6.302-5.518,6.302-9.898c0-6.044-4.9-10.943-10.945-10.943c-6.044,0-10.943,4.899-10.943,10.943
	c0,4.38,2.581,8.15,6.3,9.898C21.378,46.449,16,53.145,16,61.11h34.68C50.68,53.145,45.301,46.45,37.983,44.417z"/>
<g display="none">
	<polyline display="inline" fill="none" stroke="#FFFFFF" stroke-width="1.5" stroke-miterlimit="10" points="58.575,41.142 
		58.575,62.839 21.653,62.839 21.653,41.142 	"/>
	<path display="inline" fill="none" stroke="#FFFFFF" stroke-width="1.5" stroke-miterlimit="10" d="M63.144,35.479
		c0,3.352-2.591,6.069-5.786,6.069s-5.786-2.718-5.786-6.069c0,3.352-2.59,6.069-5.785,6.069S40,38.831,40,35.479
		c0,3.352-2.59,6.069-5.786,6.069c-3.196,0-5.786-2.718-5.786-6.069c0,3.352-2.591,6.069-5.786,6.069s-5.786-2.718-5.786-6.069"/>
	
		<polygon display="inline" fill="none" stroke="#FFFFFF" stroke-width="1.5" stroke-linejoin="round" stroke-miterlimit="10" points="
		56.443,17.162 23.556,17.162 16.857,35.479 23.86,35.479 63.144,35.479 	"/>
	
		<polygon display="inline" fill="none" stroke="#FFFFFF" stroke-width="1.5" stroke-linejoin="round" stroke-miterlimit="10" points="
		48.222,17.162 31.778,17.162 28.429,35.479 51.571,35.479 	"/>
	
		<line display="inline" fill="none" stroke="#FFFFFF" stroke-width="1.5" stroke-linejoin="round" stroke-miterlimit="10" x1="40" y1="35.479" x2="40" y2="17.162"/>
	<path display="inline" fill="none" stroke="#FFFFFF" stroke-width="1.5" stroke-linejoin="round" stroke-miterlimit="10" d="
		M40,44.711c-4.036,0-7.308,3.433-7.308,7.667v10.461h14.617V52.378C47.309,48.144,44.036,44.711,40,44.711z"/>
</g>
<g display="none">
	
		<line display="inline" fill="none" stroke="#714406" stroke-width="2" stroke-miterlimit="10" x1="22.322" y1="22.322" x2="57.678" y2="57.678"/>
	
		<line display="inline" fill="none" stroke="#714406" stroke-width="2" stroke-miterlimit="10" x1="22.322" y1="57.678" x2="57.678" y2="22.322"/>
</g>
</svg>
