<?xml version="1.0" encoding="utf-8"?>
<!-- Generator: Adobe Illustrator 16.0.0, SVG Export Plug-In . SVG Version: 6.00 Build 0)  -->
<!DOCTYPE svg PUBLIC "-//W3C//DTD SVG 1.1//EN" "http://www.w3.org/Graphics/SVG/1.1/DTD/svg11.dtd">
<svg version="1.1" xmlns="http://www.w3.org/2000/svg" xmlns:xlink="http://www.w3.org/1999/xlink" x="0px" y="0px" width="102px"
	 height="102px" viewBox="0 0 102 102" enable-background="new 0 0 102 102" xml:space="preserve">
<g id="Layer_2" display="none">
	<rect display="inline" fill="#9E9E9E" width="102" height="102"/>
</g>
<g id="Layer_1">
	<g display="none">
		<circle display="inline" fill="none" stroke="#FFFFFF" stroke-width="2" stroke-miterlimit="10" cx="51" cy="51" r="50"/>
		
			<line display="inline" fill="none" stroke="#FFFFFF" stroke-width="2" stroke-linejoin="round" stroke-miterlimit="10" x1="5.937" y1="72.693" x2="96.059" y2="72.693"/>
		<path display="inline" fill="#FFFFFF" stroke="#FFFFFF" stroke-width="1.5" stroke-linejoin="round" stroke-miterlimit="10" d="
			M70.444,58.218L60.187,46.31l6.946,0.003c0.492-0.443,0.492-1.163,0.002-1.606l-9.858-11.444l6.758,0.003
			c0.395-0.359,0.395-0.94,0-1.298l-12.31-14.289c-0.396-0.359-1.039-0.359-1.438,0l-12.32,14.279
			c-0.397,0.358-0.397,0.939-0.002,1.298l6.769,0.002l-9.865,11.436c-0.493,0.444-0.493,1.164-0.002,1.608l6.957,0.002l-10.267,11.9
			c-0.595,0.533-0.595,1.399-0.002,1.936l15.25,0.005v12.549h8.395V60.145l15.247,0.009C71.037,59.618,71.037,58.752,70.444,58.218z
			"/>
	</g>
	<g display="none">
		<circle display="inline" fill="none" stroke="#FFFFFF" stroke-width="2" stroke-miterlimit="10" cx="51.117" cy="51.601" r="50"/>
		
			<line display="inline" fill="none" stroke="#FFFFFF" stroke-width="2" stroke-linejoin="round" stroke-miterlimit="10" x1="6.054" y1="73.294" x2="96.176" y2="73.294"/>
		<path display="inline" fill="none" stroke="#FFFFFF" stroke-width="1.5" stroke-linejoin="round" stroke-miterlimit="10" d="
			M70.562,58.819L60.304,46.911l6.946,0.003c0.492-0.443,0.492-1.163,0.002-1.606l-9.858-11.444l6.758,0.003
			c0.395-0.359,0.395-0.94,0-1.298l-12.31-14.289c-0.396-0.359-1.039-0.359-1.438,0l-12.32,14.279
			c-0.397,0.358-0.397,0.939-0.002,1.298l6.769,0.002l-9.865,11.436c-0.493,0.444-0.493,1.164-0.002,1.608l6.957,0.002l-10.267,11.9
			c-0.595,0.534-0.595,1.4-0.002,1.936l15.25,0.005v12.55h8.395V60.748l15.247,0.007C71.154,60.22,71.154,59.354,70.562,58.819z"/>
	</g>
	<g>
		<circle fill="none" stroke="#FFFFFF" stroke-width="2" stroke-miterlimit="10" cx="50.79" cy="52.196" r="50"/>
		
			<line fill="none" stroke="#FFFFFF" stroke-width="2" stroke-linejoin="round" stroke-miterlimit="10" x1="5.727" y1="73.888" x2="95.849" y2="73.888"/>
		<polygon fill-rule="evenodd" clip-rule="evenodd" fill="#FFFFFF" points="65.706,49.318 52.688,52.068 52.187,45.165 
			61.558,38.554 51.976,42.264 51.377,34.009 53.877,30.19 51.284,32.721 50.445,21.18 49.726,36.246 45.085,32.707 49.653,37.749 
			49.269,45.778 40.355,41.875 49.128,48.683 48.85,54.5 35.87,51.381 48.688,57.935 47.927,73.831 50.445,75 54.254,73.624 
			52.938,55.493 		"/>
	</g>
</g>
</svg>
