<?xml version="1.0" encoding="UTF-8"?>
<svg width="122px" height="30px" viewBox="0 0 122 30" version="1.1" xmlns="http://www.w3.org/2000/svg" xmlns:xlink="http://www.w3.org/1999/xlink">
    <!-- Generator: Sketch 50.2 (55047) - http://www.bohemiancoding.com/sketch -->
    <title>popover-logo</title>
    <desc>Created with Sketch.</desc>
    <defs>
        <polygon id="path-1" points="0 87.5849462 139 87.5849462 139 0 0 0"></polygon>
        <polygon id="path-3" points="0 87.5849462 139 87.5849462 139 0 0 0"></polygon>
        <polygon id="path-5" points="0 87.5849462 139 87.5849462 139 0 0 0"></polygon>
        <path d="M28.1079744,8.11037544 L21.4397417,8.11037544 L21.4397417,1.43634111 C21.4397417,0.693401162 20.8335387,0.0990573088 20.1036299,0.0990573088 L9.40231299,0.0990573088 C8.66002554,0.0990573088 8.06619518,0.705785859 8.06619518,1.43634111 L8.06619518,8.11037544 L1.39797556,8.11037544 C0.655687712,8.11037544 0.061857334,8.717104 0.061857334,9.44764709 L0.061857334,20.158284 C0.061857334,20.9012179 0.668059101,21.4955658 1.39797556,21.4955658 L8.06619518,21.4955658 L8.06619518,28.1695917 C8.06619518,28.9125252 8.67239611,29.5068732 9.40231299,29.5068732 L20.1036299,29.5068732 C20.8459255,29.5068732 21.4397417,28.9001443 21.4397417,28.1695917 L21.4397417,21.4955658 L28.1079744,21.4955658 C28.8502496,21.4955658 29.444086,20.8888351 29.444086,20.158284 L29.444086,9.44764709 C29.444086,8.70471929 28.8378831,8.11037544 28.1079744,8.11037544 Z" id="path-7"></path>
        <linearGradient x1="21.5119313%" y1="21.5456052%" x2="84.7916504%" y2="84.5606334%" id="linearGradient-9">
            <stop stop-color="#FFFFFF" offset="0%"></stop>
            <stop stop-color="#C0C9D2" offset="100%"></stop>
        </linearGradient>
    </defs>
    <g id="Page-1" stroke="none" stroke-width="1" fill="none" fill-rule="evenodd">
        <g id="popover-logo">
            <g id="Group" transform="translate(0.000000, 0.298925)">
                <path d="M37.2441682,14.5131843 L41.0134596,14.5131843 C42.0006585,14.5131843 42.6886338,14.3635725 43.0476424,14.0644983 C43.406651,13.7652746 43.5861553,13.1968692 43.5861553,12.3592822 C43.5861553,11.3122983 43.4514897,10.6391198 43.182308,10.3250994 C42.9129768,10.0109295 42.3447209,9.8463714 41.4621456,9.8463714 L37.2441682,9.8463714 L37.2441682,14.5131843 Z M35.9427994,20.286766 L35.9427994,8.73960258 L41.4322531,8.73960258 C42.6736875,8.73960258 43.5413166,8.97889183 44.0497875,9.47256602 C44.558408,9.96609075 44.8126434,10.8186241 44.8126434,12.0303155 C44.8126434,13.0922456 44.6779778,13.8401553 44.3938499,14.2589488 C44.1246682,14.6777424 43.5861553,14.9469241 42.8083531,15.0815897 L42.8083531,15.1114822 C44.0348413,15.2011596 44.6480854,15.9490692 44.6480854,17.3401155 L44.6480854,20.286766 L43.346866,20.286766 L43.346866,17.6243929 C43.346866,16.2781854 42.7635144,15.6050069 41.5968112,15.6050069 L41.1630714,15.6050069 L37.2441682,15.6050069 L37.2441682,20.286766 L35.9427994,20.286766 Z" id="Fill-1" fill="#212121" fill-rule="nonzero"></path>
                <path d="M52.0371311,15.5452518 L52.0221848,15.171297 C52.0221848,14.3038174 51.872573,13.735412 51.5884451,13.4660809 C51.3041676,13.1968991 50.6759773,13.0771798 49.7336171,13.0771798 C48.7763106,13.0771798 48.1481203,13.2267916 47.8639924,13.5409615 C47.5797149,13.8549819 47.4302526,14.5281604 47.4302526,15.5601981 L52.0371311,15.5601981 L52.0371311,15.5452518 Z M52.0371311,17.8486163 L53.248673,17.8486163 L53.2636192,18.14784 C53.2636192,18.9854271 53.0093838,19.5837249 52.5007633,19.9128411 C51.9922924,20.2419572 51.0947709,20.421312 49.8084977,20.421312 C48.3126784,20.421312 47.3404257,20.1521303 46.8767934,19.5986712 C46.4131612,19.0603077 46.1737225,17.9085508 46.1737225,16.1734422 C46.1737225,14.5580529 46.4131612,13.4810271 46.8767934,12.9277174 C47.3404257,12.3742583 48.2678397,12.1050766 49.6289934,12.1050766 C51.1246633,12.1050766 52.096916,12.3443658 52.5606977,12.8229443 C53.02433,13.3016723 53.248673,14.3187637 53.248673,15.8594217 L53.248673,16.487612 L47.4302526,16.487612 C47.4302526,17.7589389 47.5647687,18.5815798 47.8340999,18.9256422 C48.1032816,19.2697045 48.7464182,19.4492088 49.7485633,19.4492088 C50.7058698,19.4492088 51.3191139,19.3593819 51.6033913,19.1948239 C51.8875192,19.0304153 52.0371311,18.6714067 52.0371311,18.1179475 L52.0371311,17.8486163 Z" id="Fill-3" fill="#212121" fill-rule="nonzero"></path>
                <path d="M61.1312883,14.3187338 L59.9496388,14.3187338 C59.9496388,13.7503284 59.8299195,13.406266 59.6055765,13.2717499 C59.3812334,13.1370843 58.7829356,13.0623531 57.8405754,13.0623531 C56.9581496,13.0623531 56.4046904,13.1370843 56.1654012,13.2717499 C55.9261119,13.4212123 55.8063926,13.7652746 55.8063926,14.3037875 C55.8063926,15.1264284 56.2102399,15.5601682 57.0029883,15.6050069 L57.9602947,15.6499951 L59.1718367,15.70978 C60.6376141,15.7845112 61.3705775,16.5473671 61.3705775,18.013294 C61.3705775,18.9256123 61.1312883,19.5388563 60.6376141,19.8829187 C60.1590356,20.2269811 59.2616635,20.3915391 57.975241,20.3915391 C56.6439797,20.3915391 55.7316614,20.2269811 55.2379872,19.9128112 C54.7444625,19.5838445 54.490227,19.0004929 54.490227,18.1478101 L54.5051732,17.7140703 L55.7316614,17.7140703 L55.7466076,18.0880252 C55.7466076,18.6115918 55.8812732,18.970451 56.1504549,19.1499553 C56.4196367,19.3294596 56.9581496,19.4192865 57.750898,19.4192865 C58.7231506,19.4192865 59.3662872,19.3294596 59.6804571,19.135009 C59.9944775,18.9555047 60.1440894,18.5666037 60.1440894,17.9683058 C60.1440894,17.1157725 59.7551883,16.6969789 58.9773861,16.6969789 C57.1824926,16.6969789 56.0008431,16.5473671 55.4324377,16.2333467 C54.8641818,15.934123 54.5799044,15.2909865 54.5799044,14.33368 C54.5799044,13.4212123 54.8042474,12.8229144 55.2530829,12.5238402 C55.7017689,12.2246166 56.599141,12.0751542 57.9304023,12.0751542 C60.0693582,12.0751542 61.1462345,12.7182908 61.1462345,14.0196596 L61.1462345,14.3187338 L61.1312883,14.3187338 Z" id="Fill-5" fill="#212121" fill-rule="nonzero"></path>
                <path d="M68.3707072,17.3700528 L69.5523567,17.3700528 L69.5673029,17.8037926 C69.5673029,19.5389012 68.4304922,20.4063808 66.1719663,20.4063808 C64.7211352,20.4063808 63.7488825,20.137199 63.2851008,19.5837399 C62.8214685,19.0302808 62.5821792,17.9085657 62.5821792,16.2033496 C62.5821792,14.6029066 62.8214685,13.511084 63.300047,12.9426786 C63.7787749,12.3742732 64.676147,12.0901453 66.0223545,12.0901453 C67.3386696,12.0901453 68.2360416,12.2844463 68.7147696,12.6733474 C69.1933481,13.0622485 69.4326373,13.7802657 69.4326373,14.857142 L68.2509878,14.857142 L68.2509878,14.6477453 C68.2509878,14.0195549 68.1015255,13.6007614 67.7873556,13.3913646 C67.4733352,13.1819678 66.8599416,13.0771947 65.9326771,13.0771947 C65.0351556,13.0771947 64.4667502,13.2716453 64.2125147,13.6754926 C63.9582792,14.0643937 63.8385599,14.9619152 63.8385599,16.3380152 C63.8385599,17.6842227 63.9881717,18.536756 64.2722997,18.8957646 C64.5565771,19.2697195 65.2445524,19.4492238 66.3066319,19.4492238 C67.204004,19.4492238 67.7873556,19.3295044 68.0266448,19.0902152 C68.2509878,18.8358302 68.3707072,18.2675743 68.3707072,17.3700528" id="Fill-7" fill="#212121" fill-rule="nonzero"></path>
                <path d="M77.5546166,12.1947689 L77.5546166,20.2868109 L76.3729671,20.2868109 L76.4626445,19.2247313 L76.432752,19.1948388 C76.0139585,20.0025334 75.1464789,20.3914345 73.7853252,20.3914345 C71.9006047,20.3914345 70.9434477,19.4490743 70.9434477,17.5645033 L70.9434477,12.1798227 L72.1250972,12.1798227 L72.1250972,17.5645033 C72.1250972,18.2974668 72.2446671,18.7909915 72.4839563,19.0302808 C72.7233951,19.2846657 73.2019735,19.4042356 73.9199908,19.4042356 C74.8472553,19.4042356 75.4905413,19.2247313 75.8344542,18.8507765 C76.1785166,18.4769711 76.3580209,17.8037926 76.3580209,16.8165937 L76.3580209,12.1798227 L77.5546166,12.1798227 L77.5546166,12.1947689 Z" id="Fill-9" fill="#212121" fill-rule="nonzero"></path>
                <path d="M85.1081456,15.5452518 L85.0931994,15.171297 C85.0931994,14.3038174 84.9435875,13.735412 84.6594596,13.4660809 C84.3751822,13.1968991 83.7469918,13.0771798 82.8046316,13.0771798 C81.8473252,13.0771798 81.2191348,13.2267916 80.9350069,13.5409615 C80.6507295,13.8549819 80.5012671,14.5281604 80.5012671,15.5601981 L85.1081456,15.5601981 L85.1081456,15.5452518 Z M85.1081456,17.8486163 L86.3196875,17.8486163 L86.3346338,18.14784 C86.3346338,18.9854271 86.0803983,19.5837249 85.5717778,19.9128411 C85.0633069,20.2419572 84.1657854,20.421312 82.8795123,20.421312 C81.3836929,20.421312 80.4114402,20.1521303 79.947808,19.5986712 C79.4841757,19.0603077 79.2448865,17.9085508 79.2448865,16.1734422 C79.2448865,14.5580529 79.4841757,13.4810271 79.947808,12.9277174 C80.4114402,12.3742583 81.3388542,12.1050766 82.700008,12.1050766 C84.1956778,12.1050766 85.1679305,12.3443658 85.6317123,12.8229443 C86.0953445,13.3016723 86.3196875,14.3187637 86.3196875,15.8594217 L86.3196875,16.487612 L80.5012671,16.487612 C80.5012671,17.7589389 80.6359327,18.5815798 80.9051144,18.9256422 C81.1742961,19.2697045 81.8174327,19.4492088 82.8195778,19.4492088 C83.7768843,19.4492088 84.3901284,19.3593819 84.6744058,19.1948239 C84.9585338,19.0304153 85.1081456,18.6714067 85.1081456,18.1179475 L85.1081456,17.8486163 Z" id="Fill-11" fill="#212121" fill-rule="nonzero"></path>
                <polygon id="Fill-13" fill="#212121" fill-rule="nonzero" points="92.5121076 10.6990094 92.5121076 20.2867212 90.3133668 20.2867212 90.3133668 10.6990094 86.9778152 10.6990094 86.9778152 8.73955774 95.9522829 8.73955774 95.9522829 10.6990094"></polygon>
                <g id="Fill-15-Clipped">
                    <mask id="mask-2" fill="white">
                        <use xlink:href="#path-1"></use>
                    </mask>
                    <g id="path-1"></g>
                    <path d="M96.7450462,20.2868258 L98.6895516,20.2868258 L98.6895516,12.1947839 L96.7450462,12.1947839 L96.7450462,20.2868258 Z M96.7450462,10.3550516 L98.6895516,10.3550516 L98.6895516,8.73966237 L96.7450462,8.73966237 L96.7450462,10.3550516 Z" id="Fill-15" fill="#212121" fill-rule="nonzero" mask="url(#mask-2)"></path>
                </g>
                <g id="Fill-17-Clipped">
                    <mask id="mask-4" fill="white">
                        <use xlink:href="#path-3"></use>
                    </mask>
                    <g id="path-1"></g>
                    <path d="M100.334878,12.1947689 L102.279384,12.1947689 L102.234545,13.4362033 L102.279384,13.4511496 C102.668285,12.5537775 103.490925,12.104942 104.747306,12.104942 C106.213233,12.104942 107.020928,12.5986162 107.185336,13.6007614 L107.215378,13.6007614 C107.589184,12.5986162 108.42692,12.104942 109.713193,12.104942 C111.582967,12.104942 112.525178,13.0473023 112.525178,14.9320227 L112.525178,20.2868109 L110.580822,20.2868109 L110.580822,15.3508162 C110.580822,14.1990592 110.117041,13.6306539 109.17483,13.6306539 C107.99318,13.6306539 107.409829,14.2737904 107.409829,15.5452668 L107.409829,20.2718646 L105.465323,20.2718646 L105.465323,15.2759356 C105.465323,14.6029066 105.375496,14.1691668 105.196142,13.9448238 C105.016488,13.735427 104.642682,13.6306539 104.059331,13.6306539 C102.862735,13.6306539 102.279384,14.2887367 102.279384,15.5901055 L102.279384,20.2718646 L100.334878,20.2718646 L100.334878,12.1947689 Z" id="Fill-17" fill="#212121" fill-rule="nonzero" mask="url(#mask-4)"></path>
                </g>
                <g id="Fill-18-Clipped">
                    <mask id="mask-6" fill="white">
                        <use xlink:href="#path-5"></use>
                    </mask>
                    <g id="path-1"></g>
                    <path d="M119.465508,15.4106311 L119.450562,15.0815149 C119.450562,14.4383784 119.345938,14.0195848 119.121446,13.8251343 C118.897103,13.6306838 118.418524,13.5410063 117.670614,13.5410063 C116.952597,13.5410063 116.474019,13.6605762 116.264622,13.8849192 C116.040279,14.1092623 115.935506,14.6178827 115.935506,15.3956848 L119.465508,15.3956848 L119.465508,15.4106311 Z M119.450562,17.6990494 L121.395067,17.6990494 L121.395067,18.0132192 C121.395067,19.598716 120.213418,20.3765182 117.835172,20.3765182 C116.234729,20.3765182 115.17265,20.1073365 114.679125,19.5538773 C114.1856,19.0004182 113.931215,17.8486612 113.931215,16.0687139 C113.931215,14.4981633 114.1856,13.4362332 114.709018,12.8977203 C115.232584,12.3593569 116.234729,12.0900257 117.745346,12.0900257 C119.196326,12.0900257 120.153633,12.3593569 120.647157,12.8827741 C121.140682,13.4063408 121.380121,14.4533246 121.380121,15.9939827 L121.380121,16.5922805 L115.92056,16.5922805 C115.905613,16.7717848 115.905613,16.8913547 115.905613,16.9512891 C115.905613,17.7440375 116.025333,18.282401 116.279568,18.5367859 C116.518857,18.8059676 117.012532,18.9406332 117.745346,18.9406332 C118.463363,18.9406332 118.912049,18.8657526 119.136392,18.7011945 C119.345938,18.5517322 119.450562,18.222616 119.450562,17.6990494 Z" id="Fill-18" fill="#212121" fill-rule="nonzero" mask="url(#mask-6)"></path>
                </g>
            </g>
            <g id="Group" transform="translate(0.298925, 0.000000)">
                <g id="Group-3">
                    <g id="Fill-1-Clipped">
                        <mask id="mask-8" fill="white">
                            <use xlink:href="#path-7"></use>
                        </mask>
                        <g id="path-3"></g>
                        <polygon id="Fill-1" fill="url(#linearGradient-9)" fill-rule="nonzero" mask="url(#mask-8)" points="0 29.5935484 29.444086 29.5935484 29.444086 0 0 0"></polygon>
                    </g>
                </g>
                <g id="Group-8" fill-rule="nonzero">
                    <path d="M28.1079744,8.09799075 L21.4397417,8.09799075 L21.4397417,1.42395642 C21.4397417,0.681016465 20.8335387,0.0866726115 20.1036299,0.0866726115 L9.40231299,0.0866726115 C8.66002554,0.0866726115 8.06619518,0.693401162 8.06619518,1.42395642 L8.06619518,8.09799075 L1.39797556,8.09799075 C0.655687712,8.09799075 0.061857334,8.70471929 0.061857334,9.43526441 L0.061857334,20.1459013 C0.061857334,20.8888351 0.668059101,21.4831831 1.39797556,21.4831831 L8.06619518,21.4831831 L8.06619518,28.1572079 C8.06619518,28.9001443 8.67239611,29.4944894 9.40231299,29.4944894 L20.1036299,29.4944894 C20.8459255,29.4944894 21.4397417,28.8877605 21.4397417,28.1572079 L21.4397417,21.4831831 L28.1079744,21.4831831 C28.8502496,21.4831831 29.444086,20.8764524 29.444086,20.1459013 L29.444086,9.43526441 C29.444086,8.70471929 28.8378831,8.09799075 28.1079744,8.09799075 Z M28.1203409,19.3905847 C28.1203409,19.7991987 27.7863028,20.1459013 27.3656788,20.1459013 L20.0665162,20.1459013 L20.0665162,27.4514194 C20.0665162,27.860034 19.7324863,28.2067373 19.3118562,28.2067373 L10.1446004,28.2067373 C9.73634293,28.2067373 9.3899424,27.8724178 9.3899424,27.4514194 L9.3899424,20.1459013 L2.09077784,20.1459013 C1.68251915,20.1459013 1.3361182,19.8115814 1.3361182,19.3905847 L1.3361182,10.2029636 C1.3361182,9.79434969 1.67014776,9.44764709 2.09077784,9.44764709 L9.3899424,9.44764709 L9.3899424,2.14212697 C9.3899424,1.73351305 9.72397033,1.38680232 10.1446004,1.38680232 L19.3242267,1.38680232 C19.7324863,1.38680232 20.0788867,1.72112834 20.0788867,2.14212697 L20.0788867,9.44764709 L27.3780453,9.44764709 C27.7863028,9.44764709 28.1327074,9.78196702 28.1327074,10.2029636 L28.1327074,19.3905847 L28.1203409,19.3905847 Z" id="Fill-4" fill="#D42328"></path>
                    <path d="M25.3738777,14.7472455 L22.6892674,12.7289392 L23.0975249,14.0043117 L17.1097351,13.5833151 C17.2953079,13.954781 17.4066512,14.3633949 17.4066512,14.7967742 C17.4066512,15.2177708 17.3076784,15.6140021 17.1468508,15.9607046 L23.1098914,15.5149447 L22.7140005,16.7655499 L25.3738777,14.7472455 Z" id="Fill-6" fill="#231F20"></path>
                    <path d="M16.0705313,14.6977169 L16.0705313,14.6358056 L15.4890737,4.99003981 L16.7385913,5.38626904 L14.722043,2.71170144 L12.7054947,5.39865373 L13.9797556,4.99003981 L13.423039,14.6481862 L13.423039,14.6729515 L13.423039,14.7720088 L13.423039,14.7843915 C13.423039,15.5149447 14.0168693,16.1216733 14.7591568,16.1216733 C15.4890737,16.1216733 16.0952745,15.5273274 16.0952745,14.7843915 L16.0952745,14.7720088 L16.0705313,14.6977169 Z" id="Fill-7" fill="#231F20"></path>
                </g>
            </g>
        </g>
    </g>
</svg>